# xmcd
#
# Track frame offsets:
#	150
#	18769
#	36151
#	51193
#	70064
#	86079
#	97461
#	110703
#	123645
#	138052
#	153527
#
# Disc length: 2308 seconds
#
# Revision: 1
# Processed by: cddbd v1.5.2PL0 Copyright (c) Steve Scherf et al.
# Submitted via: audiograbber 1.83.01
#
DISCID=9809020b
DTITLE=Mark Templeton and Pocket Change - October In Virginia
DYEAR=1900
DGENRE=Bluegrass
TTITLE0=Send Me Your Address From Heaven
TTITLE1=Catfish John
TTITLE2=Windy City
TTITLE3=October In Virginia
TTITLE4=Three Men On The Mountain
TTITLE5=Julie
TTITLE6=When The Angels Sing For You and Me
TTITLE7=The Miner Song
TTITLE8=Cry From The Cross
TTITLE9=Cluck Old Hen
TTITLE10=The Dog Song (Charlie Hollered)
EXTD=
EXTT0=
EXTT1=
EXTT2=
EXTT3=
EXTT4=
EXTT5=
EXTT6=
EXTT7=
EXTT8=
EXTT9=
EXTT10=
PLAYORDER=
